<?xml version="1.0" standalone="no"?><!DOCTYPE svg PUBLIC "-//W3C//DTD SVG 1.1//EN" "http://www.w3.org/Graphics/SVG/1.1/DTD/svg11.dtd"><svg t="1744189972194" class="icon" viewBox="0 0 1024 1024" version="1.1" xmlns="http://www.w3.org/2000/svg" p-id="1562" xmlns:xlink="http://www.w3.org/1999/xlink" width="200" height="200"><path d="M1023.744 624c-0.426667 9.770667-13.354667 20.693333-39.893333 34.56-54.613333 28.458667-337.749333 144.896-397.994667 176.298667-60.288 31.402667-93.738667 31.104-141.354667 8.32-47.616-22.741333-348.842667-144.469333-403.114666-170.368C14.293333 659.84 0.469333 648.917333 0 638.592v103.509333c0 10.325333 14.250667 21.290667 41.386667 34.261334 54.272 25.941333 355.541333 147.626667 403.114666 170.368 47.616 22.784 81.066667 23.082667 141.354667-8.362667 60.245333-31.402667 343.338667-147.797333 397.994667-176.298667 27.776-14.464 40.106667-25.728 40.106666-35.925333v-102.058667l-0.213333-0.085333z m0-168.746667c-0.512 9.770667-13.397333 20.650667-39.893333 34.517334-54.613333 28.458667-337.749333 144.896-397.994667 176.298666-60.288 31.402667-93.738667 31.104-141.354667 8.362667-47.616-22.741333-348.842667-144.469333-403.114666-170.410667C14.293333 491.093333 0.469333 480.128 0 469.845333v103.509334c0 10.325333 14.250667 21.248 41.386667 34.218666 54.272 25.941333 355.498667 147.626667 403.114666 170.368 47.616 22.784 81.066667 23.082667 141.354667-8.32 60.245333-31.402667 343.338667-147.84 397.994667-176.298666 27.776-14.506667 40.106667-25.770667 40.106666-35.968v-102.058667l-0.256-0.042667h0.042667z m0-175.018666c0.469333-10.410667-13.141333-19.541333-40.533333-29.610667-53.248-19.498667-334.634667-131.498667-388.522667-151.253333-53.888-19.712-75.818667-18.901333-139.093333 3.84C392.192 125.866667 92.586667 243.413333 39.296 264.234667c-26.666667 10.496-39.68 20.181333-39.253333 30.506666v103.552c0 10.325333 14.250667 21.248 41.386666 34.218667 54.272 25.941333 355.498667 147.669333 403.114667 170.410667 47.616 22.741333 81.066667 23.04 141.354667-8.362667 60.245333-31.402667 343.338667-147.84 397.994666-176.298667 27.776-14.506667 40.106667-25.770667 40.106667-35.968v-102.058666h-0.341333 0.085333z m-132.309333 3.370666l-140.330667 55.466667-15.232 5.973333-140.245333-55.466666 155.392-61.44 140.373333 55.466666h0.042667z" fill="#1296db" p-id="1563"></path><path d="M366.634667 378.24l237.269333-36.437333-71.68 105.088-165.546667-68.650667zM479.445333 181.930667l-22.954666-42.325334 71.594666 27.989334 67.498667-22.101334-18.261333 43.733334 68.778666 25.770666-88.704 9.216-19.882666 47.786667-32.085334-53.290667-102.4-9.216 76.416-27.562666zM302.677333 241.664c70.058667 0 126.805333 21.973333 126.805334 49.109333s-56.746667 49.152-126.805334 49.152S175.829333 317.866667 175.829333 290.773333c0-27.136 56.789333-49.152 126.848-49.152v0.042667z" fill="#1296db" p-id="1564"></path></svg>